<?xml version="1.0" encoding="iso-8859-1"?>
<!-- Generator: Adobe Illustrator 19.1.0, SVG Export Plug-In . SVG Version: 6.00 Build 0)  -->
<svg version="1.1" id="Capa_1" xmlns="http://www.w3.org/2000/svg" xmlns:xlink="http://www.w3.org/1999/xlink" x="0px" y="0px"
	 viewBox="0 0 57.483 57.483" style="enable-background:new 0 0 57.483 57.483;" xml:space="preserve">
<path style="fill:#010002;" d="M53.28,17.63c-0.128-0.643-0.798-1.349-1.407-1.7c-5.091-2.947-10.076-6.151-15.405-8.596
	c-3.666-1.684-7.562-1.773-11.012,1.602c-5.113,5.006-10.658,9.566-15.854,14.486C6.278,26.573,3.249,30.026,0,33.441
	c4.912,5.247,3.826,12.63,7.598,17.847c16.56-3.828,32.78-7.578,49.885-11.531C56.063,32.206,54.721,24.908,53.28,17.63z
	 M17.517,18.713c0.06,0.016,0.119,0.031,0.179,0.046c2.494-2.189,4.88-4.52,7.51-6.529c5.451-4.164,7.783-4.019,13.924,0.756
	c-2.038-0.195-3.578-0.401-5.123-0.468c-1.708-0.074-3.422-0.016-5.158-0.016c-0.059,2.885,1.88,2.483,3.353,2.476
	c3.935-0.02,7.45,1.053,10.789,3.637c-1.742,1.485-2.934,2.347-5.459,1.201c-4.008-1.82-8.413-2.771-12.667-4.023
	c-0.641-0.191-1.386-0.027-2.21,0.507c3.908,2.924,9.231,2.14,13.061,5.169c-0.893,1.439-1.924,1.622-3.584,1.127
	c-1.191-0.356-2.387-0.695-3.586-1.023c-0.324-0.089-0.649-0.171-0.973-0.258c-3.271-0.878-6.561-1.692-9.839-2.546
	c-0.017,0.015-0.033,0.03-0.05,0.045c-0.011,0.011-0.022,0.022-0.033,0.033c0.111,0.11,0.217,0.229,0.325,0.347
	c0.175,0.191,0.352,0.378,0.528,0.568c0.066,0.071,0.131,0.146,0.198,0.214c0.117,0.12,0.24,0.222,0.362,0.328
	c0.066,0.057,0.128,0.125,0.196,0.177c0.193,0.148,0.396,0.271,0.614,0.357c3.072,1.216,6.239,2.194,9.815,3.414
	c-2.773,1.454-5.289,2.34-8.127,1.575c-2.592-0.698-5.153-1.505-8.408-2.464c1.562-1.571,3.03-3.047,4.484-4.53
	C17.598,18.794,17.558,18.752,17.517,18.713z M10.974,24.962c2.357,0.85,4.463,1.61,6.57,2.37c-0.035,0.203-0.07,0.405-0.105,0.607
	c-2.503,0-5.005,0-8.171,0C10.056,26.565,10.525,25.745,10.974,24.962z M3.405,32.439c1.491-0.846,2.895-2.011,4.497-2.444
	c1.549-0.421,3.3-0.094,5.146,0.671c-2.962,1.118-5.927,2.241-8.89,3.36C3.908,33.495,3.657,32.965,3.405,32.439z M5.194,36.333
	c6.457-3.235,12.644-6.179,19.46-7.964c6.108-1.602,11.927-4.319,17.865-6.564c2.271-0.858,4.519-1.778,7.266-2.861
	c2.231,1.707,2.898,3.96,2.627,6.572C37.591,32.482,21.897,36.232,6.106,41.058C5.787,39.409,5.502,37.928,5.194,36.333z
	 M15.678,47.073c-1.536,0.371-3.115,0.589-4.684,0.788C8.6,48.169,7.433,46.983,7.23,43.822c2.037-0.967,3.939-2.136,6.003-2.795
	c10.724-3.423,21.493-6.713,32.244-10.046c2.255-0.701,4.51-1.403,7.338-2.28c0.623,2.725,1.227,5.38,1.963,8.604
	c-9.473,2.346-18.531,4.583-27.582,6.84C23.352,45.104,19.528,46.145,15.678,47.073z"/>
<g>
</g>
<g>
</g>
<g>
</g>
<g>
</g>
<g>
</g>
<g>
</g>
<g>
</g>
<g>
</g>
<g>
</g>
<g>
</g>
<g>
</g>
<g>
</g>
<g>
</g>
<g>
</g>
<g>
</g>
</svg>
