<?xml version="1.0" encoding="iso-8859-1"?>
<!-- Generator: Adobe Illustrator 19.0.0, SVG Export Plug-In . SVG Version: 6.00 Build 0)  -->
<svg version="1.1" id="Capa_1" xmlns="http://www.w3.org/2000/svg" xmlns:xlink="http://www.w3.org/1999/xlink" x="0px" y="0px"
	 viewBox="0 0 488.875 488.875" style="enable-background:new 0 0 488.875 488.875;" xml:space="preserve">
<g>
	<path d="M469.831,285.225l-38.9-38.9c-11.8-11.8-27.2-17.9-42.6-18.4c-0.5-15.5-6.6-30.8-18.4-42.6l-38.9-38.9
		c-11.8-11.8-27.2-18-42.7-18.4c-0.6-15.3-6.7-30.5-18.4-42.2l-38.9-38.9c-23.2-23.2-59.9-24.5-84.7-4l-36.7-36.7
		c-8.3-8.3-20.8-8.3-29.1,0l-73.8,73.8c-8.1,8.2-8.3,21,0,29.1l36.6,36.6c-22,24.7-21.1,62.6,2.6,86.3l38.9,38.9
		c11.8,11.8,27.2,18,42.7,18.4c0.6,15.3,6.7,30.5,18.4,42.2l38.9,38.9c11.8,11.8,27.2,17.9,42.6,18.4c0.5,15.5,6.6,30.8,18.4,42.7
		l38.9,38.9c24.6,24.6,64.5,24.6,89.1,0l96.1-96.1C494.431,349.725,494.431,309.825,469.831,285.225z M95.131,48.825l21.4,23.5
		l-44.8,44.8l-22.4-22.4L95.131,48.825z M114.131,243.125l-39.3-39.3c-9-9-9-23.5,0-32.5l96.5-96.5c9-9,23.5-9,32.5,0l39.3,39.3
		c9,9,9,23.5,0,32.5l-96.5,96.5C137.631,252.025,123.031,252.025,114.131,243.125z M214.131,342.625l-39.3-39.3c-9-9-9-23.5,0-32.5
		l96.5-96.5c9-9,23.5-9,32.5,0l39.3,39.3c9,9,9,23.5,0,32.5l-96.5,96.5C237.631,351.525,223.031,351.525,214.131,342.625z
		 M443.031,345.925l-96.5,96.5c-9,9-23.5,9-32.5,0l-39.3-39.3c-9-9-9-23.5,0-32.5l96.5-96.5c9-9,23.5-9,32.5,0l39.3,39.3
		C452.031,322.425,452.031,337.025,443.031,345.925z"/>
</g>
<g>
</g>
<g>
</g>
<g>
</g>
<g>
</g>
<g>
</g>
<g>
</g>
<g>
</g>
<g>
</g>
<g>
</g>
<g>
</g>
<g>
</g>
<g>
</g>
<g>
</g>
<g>
</g>
<g>
</g>
</svg>
